<svg xmlns="http://www.w3.org/2000/svg" viewBox="0 0 45.84 29.91"><title>Asset 1</title><g id="Layer_2" data-name="Layer 2"><g id="Layer_1-2" data-name="Layer 1"><path d="M5.28,15.8V.13h5.6C15,.13,17,1.67,17,4.73a4,4,0,0,1-.67,2.36A4.62,4.62,0,0,1,14,8.65l3.76,7.15H14.09L10.85,9.11H8.76V15.8ZM8.76,2.25V7.13h2A5.24,5.24,0,0,0,12.21,7a2,2,0,0,0,.86-.48,1.69,1.69,0,0,0,.37-.76,4.61,4.61,0,0,0,.11-1,4.64,4.64,0,0,0-.11-1.05A1.64,1.64,0,0,0,13,2.86a3.64,3.64,0,0,0-2.46-.61Z"/><path d="M19.63,3.83a2.82,2.82,0,0,1,.51-1.67A4,4,0,0,1,21.51,1,6.73,6.73,0,0,1,23.37.24a9.31,9.31,0,0,1,4.2,0,7.4,7.4,0,0,1,1.9.71A4.19,4.19,0,0,1,30.8,2.16a2.82,2.82,0,0,1,.51,1.67v8.28a2.8,2.8,0,0,1-.51,1.69A4.19,4.19,0,0,1,29.47,15a7.07,7.07,0,0,1-1.9.72,8.94,8.94,0,0,1-4.2,0A6.44,6.44,0,0,1,21.51,15a4,4,0,0,1-1.37-1.17,2.8,2.8,0,0,1-.51-1.69Zm3.48,8.28a1.3,1.3,0,0,0,.7,1.2,3.82,3.82,0,0,0,3.32,0,1.3,1.3,0,0,0,.7-1.2V3.83a1.3,1.3,0,0,0-.7-1.2,3.82,3.82,0,0,0-3.32,0,1.3,1.3,0,0,0-.7,1.2Z"/><path d="M37,15.8V9.18l-4.79-9h3.69l2.81,6.23h.06L41.6.13h3.69l-4.79,9V15.8ZM45.84.13,40.94,9.2v6.6"/><path d="M8.1,17.7V27A2.44,2.44,0,0,1,6.89,29a5.29,5.29,0,0,1-1.44.65,7,7,0,0,1-1.94.24,5.57,5.57,0,0,1-2.15-.37A7,7,0,0,1,0,28.82l2.11-1.09a3,3,0,0,0,.67.31,2.45,2.45,0,0,0,.81.13,3,3,0,0,0,.55-.06,1.74,1.74,0,0,0,.61-.23,1.31,1.31,0,0,0,.48-.43,1.35,1.35,0,0,0,.18-.74v-9Z"/><path d="M10.42,29.8l4.2-12.1h2.24l4.2,12.1h-2.7l-.79-2.6H13.9l-.79,2.6Zm6.65-4.23-1.32-4.39H15.7l-1.32,4.39Z"/><path d="M23.38,29.8V17.7H27.7q4.75,0,4.75,3.55a3.14,3.14,0,0,1-.51,1.82,3.58,3.58,0,0,1-1.81,1.21L33,29.8H30.18l-2.5-5.16H26.07V29.8Zm2.69-10.47V23.1H27.6A4.28,4.28,0,0,0,28.73,23a1.61,1.61,0,0,0,.66-.37,1.27,1.27,0,0,0,.29-.58,4,4,0,0,0,.08-.81,3.83,3.83,0,0,0-.08-.81,1.33,1.33,0,0,0-.31-.6,2.81,2.81,0,0,0-1.9-.48Z"/><path d="M33.4,29.8l4.2-12.1h2.24L44,29.8H41.35l-.8-2.6H36.89l-.8,2.6Zm6.65-4.23-1.32-4.39h0l-1.32,4.39Z"/></g></g></svg>